<svg width="32" height="32" viewBox="0 0 32 32" fill="none" xmlns="http://www.w3.org/2000/svg">
  <rect width="32" height="32" rx="6" fill="#3B82F6"/>
  <path d="M8 10C8 9.44772 8.44772 9 9 9H23C23.5523 9 24 9.44772 24 10V22C24 22.5523 23.5523 23 23 23H9C8.44772 23 8 22.5523 8 22V10Z" fill="white"/>
  <rect x="10" y="11" width="12" height="2" rx="1" fill="#3B82F6"/>
  <rect x="10" y="14" width="8" height="1.5" rx="0.75" fill="#6B7280"/>
  <rect x="10" y="16.5" width="10" height="1.5" rx="0.75" fill="#6B7280"/>
  <rect x="10" y="19" width="6" height="1.5" rx="0.75" fill="#6B7280"/>
  <circle cx="20" cy="15" r="2" fill="#10B981"/>
  <path d="M19 15L19.5 15.5L21 14" stroke="white" stroke-width="1" stroke-linecap="round" stroke-linejoin="round"/>
</svg>
